<svg width="200" height="30" viewBox="0 0 200 30" fill="none" xmlns="http://www.w3.org/2000/svg">
<path d="M0 21V0H187.5L200 11.5V30H13.5L0 21Z" fill="#10958E"/>
<path d="M9.36879 15.3352H11.1586L12.2186 16.7095L12.975 17.6044L14.7914 19.9375H12.8738L11.638 18.3714L11.1106 17.6257L9.36879 15.3352ZM15.0524 13.5455C15.0524 14.7209 14.8322 15.7276 14.3919 16.5657C13.9551 17.4002 13.3585 18.0394 12.6021 18.4833C11.8493 18.9272 10.9952 19.1491 10.04 19.1491C9.08469 19.1491 8.22887 18.9272 7.47248 18.4833C6.71964 18.0359 6.12305 17.3949 5.68271 16.5604C5.24592 15.7223 5.02752 14.7173 5.02752 13.5455C5.02752 12.37 5.24592 11.3651 5.68271 10.5305C6.12305 9.69247 6.71964 9.05149 7.47248 8.6076C8.22887 8.16371 9.08469 7.94176 10.04 7.94176C10.9952 7.94176 11.8493 8.16371 12.6021 8.6076C13.3585 9.05149 13.9551 9.69247 14.3919 10.5305C14.8322 11.3651 15.0524 12.37 15.0524 13.5455ZM13.0655 13.5455C13.0655 12.718 12.9359 12.0202 12.6767 11.4521C12.421 10.8803 12.0659 10.4489 11.6113 10.1577C11.1568 9.86293 10.633 9.71555 10.04 9.71555C9.44691 9.71555 8.92312 9.86293 8.46857 10.1577C8.01403 10.4489 7.65714 10.8803 7.3979 11.4521C7.14222 12.0202 7.01438 12.718 7.01438 13.5455C7.01438 14.3729 7.14222 15.0724 7.3979 15.6442C7.65714 16.2124 8.01403 16.6438 8.46857 16.9386C8.92312 17.2298 9.44691 17.3754 10.04 17.3754C10.633 17.3754 11.1568 17.2298 11.6113 16.9386C12.0659 16.6438 12.421 16.2124 12.6767 15.6442C12.9359 15.0724 13.0655 14.3729 13.0655 13.5455ZM23.8121 8.09091H25.7884V15.218C25.7884 15.9993 25.6037 16.6864 25.2344 17.2795C24.8686 17.8725 24.3537 18.3359 23.6896 18.6697C23.0256 19 22.2496 19.1651 21.3619 19.1651C20.4705 19.1651 19.6928 19 19.0288 18.6697C18.3647 18.3359 17.8498 17.8725 17.484 17.2795C17.1183 16.6864 16.9354 15.9993 16.9354 15.218V8.09091H18.9116V15.0529C18.9116 15.5075 19.011 15.9123 19.2099 16.2674C19.4123 16.6225 19.6964 16.9013 20.0621 17.1037C20.4279 17.3026 20.8612 17.402 21.3619 17.402C21.8626 17.402 22.2958 17.3026 22.6616 17.1037C23.0309 16.9013 23.315 16.6225 23.5138 16.2674C23.7127 15.9123 23.8121 15.5075 23.8121 15.0529V8.09091ZM27.9363 19V8.09091H35.0315V9.74751H29.9126V12.7092H34.664V14.3658H29.9126V17.3434H35.0741V19H27.9363ZM37.0477 19V8.09091H41.1386C41.9767 8.09091 42.6798 8.23651 43.248 8.5277C43.8197 8.81889 44.2512 9.22727 44.5423 9.75284C44.8371 10.2749 44.9845 10.8839 44.9845 11.5799C44.9845 12.2795 44.8353 12.8867 44.537 13.4016C44.2423 13.913 43.8073 14.3089 43.232 14.5895C42.6567 14.8665 41.95 15.005 41.1119 15.005H38.1982V13.3643H40.8456C41.3357 13.3643 41.7369 13.2969 42.0494 13.1619C42.3619 13.0234 42.5928 12.8228 42.7419 12.56C42.8946 12.2937 42.971 11.967 42.971 11.5799C42.971 11.1928 42.8946 10.8626 42.7419 10.5891C42.5892 10.3121 42.3566 10.1026 42.0441 9.96058C41.7316 9.81499 41.3286 9.74219 40.835 9.74219H39.0239V19H37.0477ZM42.6833 14.0568L45.384 19H43.1787L40.526 14.0568H42.6833ZM56.5514 13.5455C56.5514 14.7209 56.3312 15.7276 55.8909 16.5657C55.4541 17.4002 54.8575 18.0394 54.1011 18.4833C53.3483 18.9272 52.4942 19.1491 51.539 19.1491C50.5837 19.1491 49.7279 18.9272 48.9715 18.4833C48.2187 18.0359 47.6221 17.3949 47.1817 16.5604C46.7449 15.7223 46.5265 14.7173 46.5265 13.5455C46.5265 12.37 46.7449 11.3651 47.1817 10.5305C47.6221 9.69247 48.2187 9.05149 48.9715 8.6076C49.7279 8.16371 50.5837 7.94176 51.539 7.94176C52.4942 7.94176 53.3483 8.16371 54.1011 8.6076C54.8575 9.05149 55.4541 9.69247 55.8909 10.5305C56.3312 11.3651 56.5514 12.37 56.5514 13.5455ZM54.5645 13.5455C54.5645 12.718 54.4349 12.0202 54.1757 11.4521C53.92 10.8803 53.5649 10.4489 53.1104 10.1577C52.6558 9.86293 52.132 9.71555 51.539 9.71555C50.9459 9.71555 50.4221 9.86293 49.9676 10.1577C49.5131 10.4489 49.1562 10.8803 48.8969 11.4521C48.6412 12.0202 48.5134 12.718 48.5134 13.5455C48.5134 14.3729 48.6412 15.0724 48.8969 15.6442C49.1562 16.2124 49.5131 16.6438 49.9676 16.9386C50.4221 17.2298 50.9459 17.3754 51.539 17.3754C52.132 17.3754 52.6558 17.2298 53.1104 16.9386C53.5649 16.6438 53.92 16.2124 54.1757 15.6442C54.4349 15.0724 54.5645 14.3729 54.5645 13.5455ZM71.4782 11.7717H69.486C69.4292 11.445 69.3244 11.1555 69.1717 10.9034C69.019 10.6477 68.829 10.4311 68.6017 10.2536C68.3745 10.076 68.1152 9.94283 67.824 9.85405C67.5364 9.76172 67.2257 9.71555 66.8919 9.71555C66.2988 9.71555 65.7733 9.8647 65.3152 10.163C64.8571 10.4577 64.4984 10.891 64.2392 11.4627C63.9799 12.0309 63.8503 12.7251 63.8503 13.5455C63.8503 14.38 63.9799 15.0831 64.2392 15.6548C64.502 16.223 64.8606 16.6527 65.3152 16.9439C65.7733 17.2315 66.2971 17.3754 66.8865 17.3754C67.2132 17.3754 67.5186 17.3327 67.8027 17.2475C68.0904 17.1587 68.3478 17.0291 68.5751 16.8587C68.8059 16.6882 68.9995 16.4787 69.1557 16.2301C69.3155 15.9815 69.4256 15.6974 69.486 15.3778L71.4782 15.3885C71.4036 15.907 71.242 16.3935 70.9934 16.848C70.7484 17.3026 70.427 17.7038 70.0293 18.0518C69.6316 18.3963 69.1664 18.6662 68.6337 18.8615C68.101 19.0533 67.5098 19.1491 66.8599 19.1491C65.9011 19.1491 65.0453 18.9272 64.2924 18.4833C63.5396 18.0394 62.9466 17.3984 62.5133 16.5604C62.0801 15.7223 61.8635 14.7173 61.8635 13.5455C61.8635 12.37 62.0819 11.3651 62.5186 10.5305C62.9554 9.69247 63.5502 9.05149 64.3031 8.6076C65.0559 8.16371 65.9082 7.94176 66.8599 7.94176C67.4672 7.94176 68.0318 8.02699 68.5538 8.19744C69.0758 8.3679 69.541 8.61825 69.9494 8.94851C70.3578 9.27521 70.6934 9.67649 70.9561 10.1523C71.2225 10.6246 71.3965 11.1644 71.4782 11.7717ZM83.0358 13.5455C83.0358 14.7209 82.8156 15.7276 82.3753 16.5657C81.9385 17.4002 81.3419 18.0394 80.5855 18.4833C79.8327 18.9272 78.9786 19.1491 78.0233 19.1491C77.0681 19.1491 76.2123 18.9272 75.4559 18.4833C74.703 18.0359 74.1064 17.3949 73.6661 16.5604C73.2293 15.7223 73.0109 14.7173 73.0109 13.5455C73.0109 12.37 73.2293 11.3651 73.6661 10.5305C74.1064 9.69247 74.703 9.05149 75.4559 8.6076C76.2123 8.16371 77.0681 7.94176 78.0233 7.94176C78.9786 7.94176 79.8327 8.16371 80.5855 8.6076C81.3419 9.05149 81.9385 9.69247 82.3753 10.5305C82.8156 11.3651 83.0358 12.37 83.0358 13.5455ZM81.0489 13.5455C81.0489 12.718 80.9193 12.0202 80.6601 11.4521C80.4044 10.8803 80.0493 10.4489 79.5947 10.1577C79.1402 9.86293 78.6164 9.71555 78.0233 9.71555C77.4303 9.71555 76.9065 9.86293 76.452 10.1577C75.9974 10.4489 75.6405 10.8803 75.3813 11.4521C75.1256 12.0202 74.9978 12.718 74.9978 13.5455C74.9978 14.3729 75.1256 15.0724 75.3813 15.6442C75.6405 16.2124 75.9974 16.6438 76.452 16.9386C76.9065 17.2298 77.4303 17.3754 78.0233 17.3754C78.6164 17.3754 79.1402 17.2298 79.5947 16.9386C80.0493 16.6438 80.4044 16.2124 80.6601 15.6442C80.9193 15.0724 81.0489 14.3729 81.0489 13.5455ZM84.9041 8.09091H87.3224L90.5611 15.9957H90.6889L93.9276 8.09091H96.3459V19H94.4496V11.5053H94.3484L91.3335 18.968H89.9165L86.9016 11.4893H86.8004V19H84.9041V8.09091ZM98.4979 19V8.09091H105.593V9.74751H100.474V12.7092H105.225V14.3658H100.474V17.3434H105.636V19H98.4979ZM116.947 11.7717H114.955C114.898 11.445 114.793 11.1555 114.64 10.9034C114.488 10.6477 114.298 10.4311 114.07 10.2536C113.843 10.076 113.584 9.94283 113.293 9.85405C113.005 9.76172 112.694 9.71555 112.361 9.71555C111.768 9.71555 111.242 9.8647 110.784 10.163C110.326 10.4577 109.967 10.891 109.708 11.4627C109.449 12.0309 109.319 12.7251 109.319 13.5455C109.319 14.38 109.449 15.0831 109.708 15.6548C109.971 16.223 110.329 16.6527 110.784 16.9439C111.242 17.2315 111.766 17.3754 112.355 17.3754C112.682 17.3754 112.987 17.3327 113.271 17.2475C113.559 17.1587 113.817 17.0291 114.044 16.8587C114.275 16.6882 114.468 16.4787 114.624 16.2301C114.784 15.9815 114.894 15.6974 114.955 15.3778L116.947 15.3885C116.872 15.907 116.711 16.3935 116.462 16.848C116.217 17.3026 115.896 17.7038 115.498 18.0518C115.1 18.3963 114.635 18.6662 114.102 18.8615C113.57 19.0533 112.979 19.1491 112.329 19.1491C111.37 19.1491 110.514 18.9272 109.761 18.4833C109.008 18.0394 108.415 17.3984 107.982 16.5604C107.549 15.7223 107.332 14.7173 107.332 13.5455C107.332 12.37 107.551 11.3651 107.987 10.5305C108.424 9.69247 109.019 9.05149 109.772 8.6076C110.525 8.16371 111.377 7.94176 112.329 7.94176C112.936 7.94176 113.501 8.02699 114.023 8.19744C114.545 8.3679 115.01 8.61825 115.418 8.94851C115.827 9.27521 116.162 9.67649 116.425 10.1523C116.691 10.6246 116.865 11.1644 116.947 11.7717ZM111.769 18.9893H112.813L112.728 19.4421C113.062 19.4918 113.344 19.6197 113.575 19.8256C113.809 20.0352 113.927 20.3352 113.927 20.7259C113.93 21.2301 113.705 21.6349 113.25 21.9403C112.796 22.2457 112.148 22.3984 111.306 22.3984L111.285 21.4503C111.693 21.4503 112.018 21.3952 112.259 21.2852C112.501 21.1786 112.623 21.0082 112.627 20.7738C112.634 20.5465 112.549 20.3796 112.371 20.2731C112.197 20.1701 111.92 20.0991 111.54 20.06L111.769 18.9893ZM120.026 19H117.916L121.757 8.09091H124.197L128.042 19H125.933L123.019 10.3281H122.934L120.026 19ZM120.095 14.7227H125.848V16.31H120.095V14.7227ZM129.479 19V8.09091H133.57C134.408 8.09091 135.111 8.23651 135.68 8.5277C136.251 8.81889 136.683 9.22727 136.974 9.75284C137.269 10.2749 137.416 10.8839 137.416 11.5799C137.416 12.2795 137.267 12.8867 136.969 13.4016C136.674 13.913 136.239 14.3089 135.664 14.5895C135.088 14.8665 134.382 15.005 133.544 15.005H130.63V13.3643H133.277C133.767 13.3643 134.169 13.2969 134.481 13.1619C134.794 13.0234 135.024 12.8228 135.174 12.56C135.326 12.2937 135.403 11.967 135.403 11.5799C135.403 11.1928 135.326 10.8626 135.174 10.5891C135.021 10.3121 134.788 10.1026 134.476 9.96058C134.163 9.81499 133.76 9.74219 133.267 9.74219H131.456V19H129.479ZM135.115 14.0568L137.816 19H135.61L132.958 14.0568H135.115ZM144.357 19H142.247L146.088 8.09091H148.528L152.373 19H150.264L147.35 10.3281H147.265L144.357 19ZM144.426 14.7227H150.179V16.31H144.426V14.7227ZM160.606 11.5746C160.517 11.2869 160.395 11.0295 160.238 10.8022C160.086 10.5714 159.901 10.3743 159.684 10.2109C159.471 10.0476 159.226 9.92507 158.949 9.84339C158.672 9.75817 158.37 9.71555 158.044 9.71555C157.458 9.71555 156.936 9.86293 156.478 10.1577C156.02 10.4524 155.659 10.8857 155.396 11.4574C155.137 12.0256 155.008 12.718 155.008 13.5348C155.008 14.3587 155.137 15.0565 155.396 15.6282C155.656 16.1999 156.016 16.6349 156.478 16.9332C156.939 17.228 157.476 17.3754 158.086 17.3754C158.64 17.3754 159.12 17.2688 159.525 17.0558C159.933 16.8427 160.247 16.5408 160.467 16.1502C160.688 15.756 160.798 15.2944 160.798 14.7653L161.245 14.8345H158.283V13.2898H162.71V14.6001C162.71 15.5341 162.511 16.342 162.113 17.0238C161.716 17.7056 161.169 18.2312 160.473 18.6005C159.777 18.9663 158.978 19.1491 158.076 19.1491C157.071 19.1491 156.188 18.9237 155.428 18.4727C154.672 18.0181 154.081 17.3736 153.655 16.5391C153.232 15.701 153.021 14.7067 153.021 13.5561C153.021 12.6754 153.145 11.8888 153.394 11.1964C153.646 10.5039 153.997 9.91619 154.448 9.43324C154.899 8.94673 155.428 8.57741 156.036 8.32528C156.643 8.0696 157.303 7.94176 158.017 7.94176C158.621 7.94176 159.184 8.03054 159.706 8.2081C160.228 8.3821 160.691 8.63068 161.096 8.95384C161.504 9.27699 161.84 9.66051 162.103 10.1044C162.366 10.5483 162.538 11.0384 162.619 11.5746H160.606ZM174.369 13.5455C174.369 14.7209 174.149 15.7276 173.708 16.5657C173.271 17.4002 172.675 18.0394 171.919 18.4833C171.166 18.9272 170.312 19.1491 169.356 19.1491C168.401 19.1491 167.545 18.9272 166.789 18.4833C166.036 18.0359 165.439 17.3949 164.999 16.5604C164.562 15.7223 164.344 14.7173 164.344 13.5455C164.344 12.37 164.562 11.3651 164.999 10.5305C165.439 9.69247 166.036 9.05149 166.789 8.6076C167.545 8.16371 168.401 7.94176 169.356 7.94176C170.312 7.94176 171.166 8.16371 171.919 8.6076C172.675 9.05149 173.271 9.69247 173.708 10.5305C174.149 11.3651 174.369 12.37 174.369 13.5455ZM172.382 13.5455C172.382 12.718 172.252 12.0202 171.993 11.4521C171.737 10.8803 171.382 10.4489 170.928 10.1577C170.473 9.86293 169.949 9.71555 169.356 9.71555C168.763 9.71555 168.24 9.86293 167.785 10.1577C167.33 10.4489 166.974 10.8803 166.714 11.4521C166.459 12.0202 166.331 12.718 166.331 13.5455C166.331 14.3729 166.459 15.0724 166.714 15.6442C166.974 16.2124 167.33 16.6438 167.785 16.9386C168.24 17.2298 168.763 17.3754 169.356 17.3754C169.949 17.3754 170.473 17.2298 170.928 16.9386C171.382 16.6438 171.737 16.2124 171.993 15.6442C172.252 15.0724 172.382 14.3729 172.382 13.5455ZM176.237 19V8.09091H180.328C181.166 8.09091 181.869 8.23651 182.437 8.5277C183.009 8.81889 183.441 9.22727 183.732 9.75284C184.027 10.2749 184.174 10.8839 184.174 11.5799C184.174 12.2795 184.025 12.8867 183.726 13.4016C183.432 13.913 182.997 14.3089 182.421 14.5895C181.846 14.8665 181.139 15.005 180.301 15.005H177.388V13.3643H180.035C180.525 13.3643 180.926 13.2969 181.239 13.1619C181.551 13.0234 181.782 12.8228 181.931 12.56C182.084 12.2937 182.16 11.967 182.16 11.5799C182.16 11.1928 182.084 10.8626 181.931 10.5891C181.779 10.3121 181.546 10.1026 181.234 9.96058C180.921 9.81499 180.518 9.74219 180.024 9.74219H178.213V19H176.237ZM181.873 14.0568L184.573 19H182.368L179.715 14.0568H181.873ZM187.394 19H185.285L189.125 8.09091H191.565L195.411 19H193.301L190.388 10.3281H190.302L187.394 19ZM187.463 14.7227H193.216V16.31H187.463V14.7227Z" fill="white"/>
</svg>
